HIERARCHY
ROOT Hips
{
	OFFSET 0.00000 0.00000 0.00000
	CHANNELS 6 Xposition Yposition Zposition Zrotation Yrotation Xrotation 
	JOINT LHipJoint
	{
		OFFSET 0 0 0
		CHANNELS 3 Zrotation Yrotation Xrotation
		JOINT LeftHip
		{
			OFFSET 1.84395 -1.68683 0.74144
			CHANNELS 3 Zrotation Yrotation Xrotation
			JOINT LeftKnee
			{
				OFFSET 2.27037 -6.23779 0.00000
				CHANNELS 3 Zrotation Yrotation Xrotation
				JOINT LeftAnkle
				{
					OFFSET 2.56918 -7.05877 0.00000
					CHANNELS 3 Zrotation Yrotation Xrotation
					JOINT LeftToe
					{
						OFFSET 0.22276 -0.61202 1.71784
						CHANNELS 3 Zrotation Yrotation Xrotation
						End Site
						{
							OFFSET 0.00000 -0.00000 0.91613
						}
					}
				}
			}
		}
	}
	JOINT RHipJoint
	{
		OFFSET 0 0 0
		CHANNELS 3 Zrotation Yrotation Xrotation
		JOINT RightHip
		{
			OFFSET -1.76833 -1.68684 0.74144
			CHANNELS 3 Zrotation Yrotation Xrotation
			JOINT RightKnee
			{
				OFFSET -2.49360 -6.85110 0.00000
				CHANNELS 3 Zrotation Yrotation Xrotation
				JOINT RightAnkle
				{
					OFFSET -2.55538 -7.02085 0.00000
					CHANNELS 3 Zrotation Yrotation Xrotation
					JOINT RightToe
					{
						OFFSET -0.21516 -0.59115 1.68050
						CHANNELS 3 Zrotation Yrotation Xrotation
						End Site
						{
							OFFSET -0.00000 -0.00000 0.89604
						}
					}
				}
			}
		}
	}
	JOINT lowerback
	{
		OFFSET 0 0 0
		CHANNELS 3 Zrotation Yrotation Xrotation
		JOINT Chest
		{
			OFFSET 0.06382 1.72312 -0.19613
			CHANNELS 3 Zrotation Yrotation Xrotation
			JOINT Chest2
			{
				OFFSET -0.00055 1.73507 0.23859
				CHANNELS 3 Zrotation Yrotation Xrotation
				JOINT lowerneck
				{
					OFFSET 0 0 0
					CHANNELS 3 Zrotation Yrotation Xrotation
					JOINT Neck
					{
						OFFSET 0.03638 1.65562 0.09633
						CHANNELS 3 Zrotation Yrotation Xrotation
						JOINT Head
						{
							OFFSET 0.06388 1.62807 -0.32386
							CHANNELS 3 Zrotation Yrotation Xrotation
							End Site
							{
								OFFSET 0.00995 1.67644 -0.12021
							}
						}
					}
				}
				JOINT LeftCollar
				{
					OFFSET 0 0 0
					CHANNELS 3 Zrotation Yrotation Xrotation
					JOINT LeftShoulder
					{
						OFFSET 3.09648 1.42991 0.28122
CHANNELS 3 Zrotation Xrotation Yrotation
						JOINT LeftElbow
						{
OFFSET 0 -5.118780 -0.000000
CHANNELS 3 Zrotation Xrotation Yrotation
							JOINT LeftWrist
							{
OFFSET 0 -3.599710 0.000000
CHANNELS 3 Zrotation Xrotation Yrotation
								JOINT lhand
								{
									OFFSET 0 0 0
CHANNELS 3 Zrotation Xrotation Yrotation
									JOINT LFingers
									{
OFFSET 0 -0.628770 0.000000
CHANNELS 3 Zrotation Xrotation Yrotation
										End Site
										{
OFFSET 0 -0.506930 0.000000
										}
									}
								}
								JOINT LThumb
								{
OFFSET 0 0.000000 0.000000
CHANNELS 3 Zrotation Xrotation Yrotation
									End Site
									{
OFFSET 0 -0.514670 0.514670
									}
								}
							}
						}
					}
				}
				JOINT RightCollar
				{
					OFFSET 0 0 0
					CHANNELS 3 Zrotation Yrotation Xrotation
					JOINT RightShoulder
					{
						OFFSET -3.33565 1.14597 0.05047
CHANNELS 3 Zrotation Xrotation Yrotation
						JOINT RightElbow
						{
OFFSET 0 -5.490200 0.000000
CHANNELS 3 Zrotation Xrotation Yrotation
							JOINT RightWrist
							{
OFFSET 0 -3.206590 -0.000000
CHANNELS 3 Zrotation Xrotation Yrotation
								JOINT rhand
								{
									OFFSET 0 0 0
CHANNELS 3 Zrotation Xrotation Yrotation
									JOINT RFingers
									{
OFFSET 0 -0.691880 0.000000
CHANNELS 3 Zrotation Xrotation Yrotation
										End Site
										{
OFFSET 0 -0.557810 0.000000
										}
									}
								}
								JOINT RThumb
								{
OFFSET 0 0.000000 0.000000
CHANNELS 3 Zrotation Xrotation Yrotation
									End Site
									{
OFFSET 0 -0.566330 0.566330
									}
								}
							}
						}
					}
				}
			}
		}
	}
}
MOTION
Frames: 7
Frame Time: 0.008333333333333333
0.103400 17.526600 8.465700 -7.653600 -1.071700 10.649200 0.000000 0.000000 0.000000 -18.129100 -40.739800 20.820500 0.046300 -1.388100 -3.817400 -5.302000 42.460000 -41.795900 0.359600 3.852300 10.661500 0.000000 0.000000 0.000000 25.236700 25.677100 4.812200 -0.011800 -0.700700 1.925800 1.069500 -21.989600 -21.938000 -0.075000 -1.766500 4.860700 6.177400 2.428600 -0.318400 -1.437100 3.521600 -10.455800 -5.293600 1.090700 -10.555000 -11.746500 -15.880400 -4.834700 10.980200 -26.567500 35.667100 1.912600 -11.810500 17.108600 0.000000 -0.000000 0.000000 2.861400 8.806200 -11.494600 9.000900 -15.161800 1.200300 13.374600 35.958000 15.316400 0.000000 0.000000 0.000000 -7.125000 0.000000 0.000000 -9.595400 14.410700 -7.006300 0.000000 -0.000000 0.000000 8.347500 14.107400 -5.528000 -14.469800 -23.402400 -3.012200 12.345100 39.883300 34.092800 0.000000 0.000000 0.000000 7.125000 0.000000 -0.000000 48.881400 57.140700 -17.291500
0.092332 17.520060 8.458791 -8.095118 -1.159340 10.656893 0.000000 0.000000 0.000000 -17.689225 -40.871287 21.103298 0.051539 -1.464450 -4.027716 -5.237562 42.593235 -42.422434 0.395398 4.037286 11.181490 0.000000 0.000000 0.000000 25.796892 25.876234 4.805879 -0.013096 -0.738286 2.028987 1.073436 -22.003559 -21.923822 -0.074180 -1.757649 4.836210 6.265344 2.159886 -0.265387 -0.710582 3.215099 -10.141449 -4.526282 0.989475 -10.303135 -9.764585 -15.497653 -0.042926 11.460179 -23.998955 23.516578 2.967660 -11.296628 10.121049 0.000000 0.000000 0.000000 1.753818 8.157830 -10.702916 8.829015 -14.887543 1.155798 15.884148 33.302531 15.632647 0.000000 0.000000 0.000000 -7.125000 0.000000 0.000000 -7.911092 13.869044 -5.841181 0.000000 0.000000 0.000000 6.246096 8.370001 -18.705068 -9.426022 -15.836784 -1.313942 7.422152 57.518494 30.619313 0.000000 0.000000 0.000000 7.125000 0.000000 0.000000 41.100439 55.595978 -12.163365
0.080076 17.514524 8.474828 -9.179419 -0.841934 10.815585 0.000000 0.000000 0.000000 -16.267919 -40.964554 21.142759 0.061687 -1.602540 -4.408459 -5.467201 42.895982 -42.191372 0.360015 3.854748 10.668329 0.000000 0.000000 0.000000 27.167394 25.840114 4.910705 -0.010303 -0.653904 1.796891 1.122113 -22.180175 -21.752906 -0.060845 -1.591774 4.378781 7.238078 1.976893 -0.518835 -0.202816 3.026623 -9.837631 -4.487619 0.867125 -9.829368 -9.706196 -15.567463 -1.965217 11.064306 -23.996601 24.153959 2.638999 -11.189028 10.643893 0.000000 0.000000 0.000000 1.473429 7.556547 -11.029294 8.674291 -14.639885 1.116423 18.300675 30.206134 16.309785 0.000000 0.000000 0.000000 -7.125000 0.000000 0.000000 -6.310692 12.927647 -4.768614 0.000000 0.000000 0.000000 5.781524 7.604338 -18.590455 -9.286469 -15.615771 -1.276183 6.942238 58.231413 30.480280 0.000000 0.000000 0.000000 7.125000 0.000000 0.000000 40.543116 55.583821 -11.941748
0.085977 17.518360 8.465944 -8.873916 -0.890860 10.911056 0.000000 0.000000 0.000000 -16.663928 -41.165146 21.055292 0.057540 -1.547638 -4.257076 -5.403154 42.894462 -42.468389 0.384182 3.980146 11.020844 0.000000 0.000000 0.000000 26.658499 25.651419 4.632979 -0.010184 -0.650755 1.788182 1.090305 -21.970142 -21.653277 -0.063307 -1.623661 4.466793 7.076030 1.611895 -0.052257 0.031434 2.601783 -10.198583 -4.143212 0.642118 -10.592450 -10.710427 -15.155161 -2.117997 10.906887 -23.387706 24.899467 2.785337 -10.972047 10.986133 0.000000 0.000000 0.000000 0.862165 8.269577 -9.776625 8.725054 -14.721194 1.129220 17.959731 30.745244 15.862664 0.000000 0.000000 0.000000 -7.125000 0.000000 0.000000 -6.523349 13.426770 -4.862231 0.000000 0.000000 0.000000 4.714549 7.668965 -18.198893 -8.515882 -14.385499 -1.076669 6.273538 59.309924 30.391287 0.000000 0.000000 0.000000 7.125000 0.000000 0.000000 39.858569 55.647871 -11.754119
0.106805 17.524559 8.452672 -8.127190 -0.958108 11.160185 0.000000 0.000000 0.000000 -17.613656 -41.574376 20.771820 0.047889 -1.412650 -3.884989 -5.414654 42.985049 -42.650979 0.388980 4.005016 11.090741 0.000000 0.000000 0.000000 25.395094 25.039119 3.911774 -0.009705 -0.634683 1.744264 1.037053 -21.453049 -21.126677 -0.044132 -1.355113 3.726416 6.244348 0.929650 -0.189996 0.692011 1.671752 -10.170934 -2.886793 0.296606 -10.614658 -11.905507 -14.568712 -3.181507 10.340928 -22.269748 25.606757 2.833012 -10.536312 11.385539 0.000000 0.000000 0.000000 -0.848217 8.247982 -7.181967 8.937087 -15.060099 1.183748 17.357921 32.528597 14.119861 0.000000 0.000000 0.000000 -7.125000 0.000000 0.000000 -6.884538 15.287500 -4.861418 0.000000 0.000000 0.000000 3.043614 7.311717 -15.970154 -8.338890 -14.100703 -1.033125 6.388090 59.337970 30.474991 0.000000 0.000000 0.000000 7.125000 0.000000 0.000000 40.036703 55.690653 -11.864315
0.107827 17.526467 8.448127 -8.108046 -0.998849 11.168279 0.000000 0.000000 0.000000 -17.576154 -41.504545 20.707753 0.048767 -1.424633 -3.917918 -5.415077 42.960567 -42.586663 0.390567 4.012770 11.112662 0.000000 0.000000 0.000000 25.374444 25.127151 3.910199 -0.010000 -0.644260 1.770460 1.041432 -21.477715 -21.129179 -0.043934 -1.352150 3.718443 6.253654 0.914607 -0.144623 0.687019 1.656674 -10.208388 -2.897428 0.284840 -10.686624 -11.707234 -14.569268 -3.124696 10.086903 -22.214214 25.559979 2.736029 -10.523587 11.288276 0.000000 0.000000 0.000000 -0.898435 8.337720 -7.138205 8.955898 -15.090183 1.188586 17.298967 32.521608 14.041407 0.000000 0.000000 0.000000 -7.125000 0.000000 0.000000 -6.923224 15.373900 -4.876344 0.000000 0.000000 0.000000 3.027488 7.351034 -15.495276 -8.378647 -14.164761 -1.042787 6.586381 59.010096 30.415992 0.000000 0.000000 0.000000 7.125000 0.000000 0.000000 40.164074 55.604647 -11.822691
0.108484 17.525876 8.445324 -8.117876 -1.008346 11.136720 0.000000 0.000000 0.000000 -17.597584 -41.511420 20.731045 0.048240 -1.417997 -3.899670 -5.593073 43.160155 -42.328125 0.347841 3.789361 10.484762 0.000000 0.000000 0.000000 25.371960 25.043732 3.890236 -0.009884 -0.642227 1.764718 1.039672 -21.427352 -21.037174 -0.039300 -1.279776 3.518836 6.258288 0.815573 -0.092657 0.809786 1.535456 -10.167088 -2.758141 0.232471 -10.685857 -12.054554 -14.551069 -3.438005 10.156279 -22.178825 25.782568 2.779785 -10.507215 11.484406 0.000000 0.000000 0.000000 -1.180833 8.220406 -6.913748 8.916948 -15.027901 1.178464 17.290010 32.454685 14.028572 0.000000 0.000000 0.000000 -7.125000 0.000000 0.000000 -6.929116 15.387849 -4.878395 0.000000 0.000000 0.000000 2.804907 7.213448 -15.257220 -8.344926 -14.110441 -1.034587 6.427817 59.241566 30.297683 0.000000 0.000000 0.000000 7.125000 0.000000 0.000000 39.915829 55.543550 -11.667870
